<!-- <svg xmlns="http://www.w3.org/2000/svg" viewBox="0 0 24 24">
  <title>ur</title>
  <path d="M5.74,16.71a2.4,2.4,0,0,0,.58.91,2.8,2.8,0,0,0,1.07.64A4.64,4.64,0,0,0,9,18.51a4.66,4.66,0,0,0,1.65-.25,2.76,2.76,0,0,0,1.06-.64,2.4,2.4,0,0,0,.58-.91,3,3,0,0,0,.18-1V13.15h0l0-3.58a1.09,1.09,0,0,1,.36-.86,1.69,1.69,0,0,1,1.16-.32,2.09,2.09,0,0,1,.95.18,1.09,1.09,0,0,1,.52.91,2.45,2.45,0,0,1-.71,1.73,6.74,6.74,0,0,0-1,1.47,2.78,2.78,0,0,0,0,2.24,4.78,4.78,0,0,0,.71.95l3.83,3.79h0a1.22,1.22,0,0,0,.73-1.12V17.48l-3.13-3.13a1,1,0,0,1,0-1.43s.91-1.26,1.1-1.57a3.43,3.43,0,0,0,.66-1.94h0V9.28s0-.08,0-.12V9.09c0-.05,0-.09,0-.14a1.2,1.2,0,0,0,0-.29,3,3,0,0,0-.1-.32,2.48,2.48,0,0,0-.63-.93,3,3,0,0,0-1.12-.65,4.9,4.9,0,0,0-1.69-.25,4.88,4.88,0,0,0-1.68.25,3.08,3.08,0,0,0-1.13.65,2.48,2.48,0,0,0-.63.93,2.91,2.91,0,0,0-.19,1.05v3.93h0v2.17a1.16,1.16,0,0,1-.31.87,1.53,1.53,0,0,1-1.09.3,1.53,1.53,0,0,1-1.09-.3,1.16,1.16,0,0,1-.31-.87V4.58H5.55v11.1A3,3,0,0,0,5.74,16.71Z"
        transform="translate(0 0)"/>
</svg> -->
<svg xmlns="http://www.w3.org/2000/svg" viewBox="0 0 24 24" id="script">
  <path fill="#0f54a6" fill-rule="evenodd" clip-rule="evenodd" d="M7.227 3.632c.523-.28 1.18-.418 1.987-.418a.536.536 0 1 1 0 1.072c-.692 0-1.16.12-1.482.29a1.492 1.492 0 0 0-.66.697c-.31.64-.322 1.53-.322 2.602v.072c0 .976 0 2.112-.429 2.998-.201.415-.497.78-.92 1.055.423.275.719.64.92 1.055.43.886.43 2.022.429 2.998v.072c0 1.071.011 1.963.321 2.602.143.296.35.53.661.696.322.172.79.291 1.482.291a.536.536 0 1 1 0 1.072c-.808 0-1.464-.139-1.987-.418a2.565 2.565 0 0 1-1.12-1.173c-.43-.886-.429-2.022-.429-2.998v-.072c0-1.071-.01-1.963-.32-2.602a1.495 1.495 0 0 0-.662-.696c-.321-.172-.79-.291-1.482-.291a.536.536 0 1 1 0-1.072c.692 0 1.16-.12 1.482-.29.312-.168.518-.401.661-.697.31-.64.321-1.53.321-2.602v-.072c0-.976 0-2.112.43-2.998.23-.478.588-.889 1.12-1.173Zm7.023.118c0-.296.24-.536.536-.536.808 0 1.464.139 1.987.418.531.284.888.695 1.12 1.173.429.886.429 2.022.428 2.998v.072c0 1.071.011 1.963.322 2.602.143.296.348.53.66.696.322.172.79.291 1.483.291a.536.536 0 1 1 0 1.072c-.692 0-1.16.12-1.482.29a1.494 1.494 0 0 0-.661.697c-.31.64-.322 1.53-.322 2.602v.072c0 .976 0 2.112-.428 2.998a2.565 2.565 0 0 1-1.12 1.173c-.523.28-1.18.418-1.987.418a.536.536 0 1 1 0-1.072c.692 0 1.16-.12 1.481-.29.313-.168.518-.401.662-.697.31-.64.32-1.53.32-2.602v-.072c0-.976 0-2.112.43-2.998.201-.415.497-.78.92-1.055a2.568 2.568 0 0 1-.92-1.055c-.43-.886-.43-2.022-.43-2.998v-.072c0-1.071-.01-1.963-.32-2.602a1.495 1.495 0 0 0-.662-.696c-.32-.172-.79-.291-1.481-.291a.536.536 0 0 1-.536-.536Z"></path></svg>